<svg xmlns="http://www.w3.org/2000/svg" viewBox="0 0 250.81 250.81"><defs><style>.cls-1{fill-rule:evenodd;}</style></defs><g id="Layer_2" data-name="Layer 2"><g id="Layer_1-2" data-name="Layer 1"><g id="SVGRepo_iconCarrier" data-name="SVGRepo iconCarrier"><g id="Page-1"><g id="Dribbble-Light-Preview"><g id="icons"><path id="github-_142_" data-name="github-[#142]" class="cls-1" d="M125.4,0c69.27,0,125.41,57.56,125.41,128.58,0,56.8-35.89,105-85.69,122-6.36,1.27-8.62-2.74-8.62-6.17,0-4.24.15-18.08.15-35.29,0-12-4-19.81-8.51-23.8,27.93-3.19,57.27-14.06,57.27-63.45A50.33,50.33,0,0,0,192.5,87.35c1.3-3.24,5.6-16.32-1.23-34,0,0-10.51-3.45-34.45,13.18a116.28,116.28,0,0,0-62.8,0c-24-16.63-34.5-13.18-34.5-13.18C52.71,71,57,84.11,58.3,87.35a50.52,50.52,0,0,0-12.92,34.51c0,49.27,29.29,60.3,57.14,63.55-3.59,3.21-6.84,8.88-8,17.19-7.14,3.29-25.3,9-36.49-10.68,0,0-6.63-12.36-19.22-13.26,0,0-12.23-.16-.86,7.82,0,0,8.22,4,13.92,18.81,0,0,7.37,23,42.25,15.17.07,10.75.18,20.88.18,23.94,0,3.4-2.31,7.38-8.57,6.18C35.93,233.59,0,185.39,0,128.58,0,57.56,56.16,0,125.4,0"/></g></g></g></g></g></g></svg>